Patient4_TMGait_0pt7_02_left_38_EMG.mot
version=1
nRows=30
nColumns=33
inDegrees=no
endheader
time	1LAddLong	2LGlutMax	3LGlutMed	4LIliopsoas	5LSemiMemb	6LBicFemLong	7LRecFem	8LVastMed	9LVastLat	10LGasMed	11LTibAnt	12lTibPost	13LPeroneusLong	14LSol	15LExtDigLong	16LFlexDigLong	17RAddLong	18RGlutMax	19RGlutMed	20RIliopsoas	21RSemiMemb	22RBicFemLong	23RRecFem	24RVastMed	25RVastLat	26RGasMed	27RTibAnt	28RTibPost	29RPeroneusLong	30RSol	31RExtDigLong	32RFlexDigLong
43.882	0.012817	0.9404	0.15701	-0.031891	0.019226	-0.019073	-0.082855	0.013733	0.3775	0.13107	0.02655	0.008698	0.091705	-0.17502	0.49011	-0.043793	-0.031128	1.2486	-0.26962	0.23331	-0.11902	0.30579	0.41534	-0.27878	-0.023193	-0.002747	0.61233	-0.002441	-0.16266	-0.16312	0.010681	-0.032349
43.883	0.006104	0.91095	0.063324	-0.035248	-0.052185	0.5867	-0.032196	0.017395	0.18662	0.23987	0.023804	0.004883	0.083008	-0.054321	0.29251	-0.050049	-0.075531	1.5053	-0.48782	0.23025	-0.14191	0.13748	0.44693	-0.27466	-0.038452	-0.004578	0.086823	-0.019684	-0.14343	-0.20065	0.005646	-0.028076
43.884	-0.003052	0.80841	0.044861	-0.016479	-0.1152	0.60333	-0.062866	0.017242	0.06958	0.56061	-0.027313	0.004883	0.068512	-0.029297	0.18555	-0.052643	-0.17685	1.7305	-0.68924	0.24551	-0.21622	-0.084229	0.41382	-0.24643	-0.018921	-0.001068	0.044861	-0.031738	-0.08728	-0.18448	0.004272	-0.019226
43.885	-0.009308	0.72723	0.046844	-0.013123	-0.13886	0.47363	-0.11337	0.009308	-0.050201	0.87723	-0.075226	0.00473	0.028381	-0.13672	0.14954	-0.028839	-0.29129	1.8495	-0.51285	0.19943	-0.25131	0.090942	0.45303	-0.31815	-0.036926	-0.000305	-0.13321	-0.040741	-0.079956	-0.17593	0.012207	-0.011749
43.886	-0.024109	0.67307	0.043488	-0.00824	-0.21118	0.4538	-0.11383	0.016174	-0.12924	0.73349	-0.063782	0.010071	-0.033722	-0.20157	0.34515	-0.028992	-0.23285	2.1796	-0.35828	0.15579	-0.20813	0.3006	0.43015	-0.24429	-0.011749	-0.011902	-0.17883	-0.043945	-0.12955	-0.17487	0.012817	-0.010834
43.887	-0.024719	0.62882	-0.032959	-0.020752	-0.23651	0.066681	-0.12207	0.002747	-0.13779	0.51971	0.050659	0.001373	-0.023193	-0.14343	0.43411	0.015564	-0.22492	2.3996	-0.28839	0.11658	-0.14282	0.30075	0.39215	-0.18662	-0.036163	-0.006714	0.0737	-0.046844	-0.11124	-0.18265	0.007935	-0.009613
43.888	-0.016022	0.5925	-0.059204	-0.005188	-0.10986	-0.33981	-0.15671	-0.00061	-0.094757	0.36987	0.30579	-0.008545	0.011444	-0.0914	0.66986	0.021057	-0.067291	2.5914	-0.19058	-0.026093	-0.032654	0.27069	0.34866	-0.10834	-0.005493	-0.002136	-0.10529	-0.045013	0.036469	-0.17517	0.001526	-0.012512
43.889	0.00824	0.53101	0.048523	-0.014496	-0.005646	-0.31021	-0.17181	0.010681	-0.061646	0.20248	0.29236	0.000305	0.054474	0.07019	0.36041	-1.5237	-0.019836	2.7348	-0.15503	-0.18967	-0.012817	0.42755	0.3772	-0.11841	-0.001831	0.004578	-0.22079	-0.040741	0.06073	-0.17685	0.006104	-0.000305
43.89	0.019073	0.38101	0.006104	-0.002594	-0.009918	-0.14954	-0.13046	0.002289	-0.013428	0.19867	0.15533	0.000305	0.1619	0.16312	0.26108	0.17548	-0.056	2.7171	-0.43381	-0.27908	-0.023193	0.50323	0.44388	-0.13321	0.015411	0.002441	-0.25925	-0.038147	0.010986	-0.17456	0.006256	0.000153
43.891	0.02533	0.31479	-0.037079	-0.005341	-0.068665	0.24124	-0.1265	0.001831	0.04425	0.16968	-0.042114	0.010071	0.093536	0.089569	0.62546	1.0286	-0.079041	2.5029	-0.5394	-0.2475	-0.058899	0.35248	0.36758	-0.10742	0.044098	0.003815	-0.16174	-0.037231	-0.096893	-0.20645	0.010529	-0.004883
43.892	0.031586	0.33203	-0.019989	-0.007935	-0.007629	0.30868	-0.13702	0.002136	0.1088	0.19928	0.063782	0.007477	0.003357	0.093689	0.14572	-0.44495	-0.10391	2.4948	-0.63004	-0.24353	-0.11231	0.2002	0.23529	-0.094604	0.071869	-0.002441	0.19119	-0.031738	-0.12207	-0.20081	0.012512	-0.003052
43.893	0.020599	0.27496	-0.017242	-0.013275	0.045624	0.28214	-0.10117	-0.003204	0.18433	0.32532	0.09964	0.007629	-0.082703	-0.000305	0.028687	0.027313	-0.1088	2.3627	-0.634	-0.23361	-0.10254	0.16647	0.21881	-0.082855	0.11673	-0.002136	0.27435	-0.026093	-0.13306	-0.19012	0.008087	-0.000763
43.894	0.002289	0.22095	-0.022278	-0.019836	0.049591	-0.013428	-0.1265	0.012817	0.20432	-0.14786	0.005341	-0.005035	-0.038757	-0.14954	0.10941	0.80414	-0.10666	2.1556	-0.60577	-0.16327	-0.041809	0.21698	0.31113	-0.13626	0.096893	-0.005646	0.17319	-0.024719	-0.1709	-0.21332	0.011597	0.000305
43.895	-0.016785	0.15106	0.007477	-0.002136	-0.015564	-0.06958	-0.12726	0	0.017853	-0.51086	-0.06134	0.007782	-0.1294	-0.35736	-0.41092	-0.11063	-0.078888	1.9562	-0.57861	-0.11185	0.049133	0.27039	0.33951	-0.044556	0.11078	-0.013275	-0.074463	-0.017853	-0.10895	-0.12222	0.008087	0.003204
43.896	-0.007477	0.1088	0.003662	0.004578	-0.057831	-0.09903	-0.1181	-0.001678	-0.21774	0.13153	-0.20966	0.002441	-0.061493	-0.3952	-0.40527	-0.88913	-0.03891	1.8599	-0.54398	-0.02533	0.11932	0.25452	0.38361	0.070648	0.11612	-0.010071	-0.14481	-0.010834	-0.0737	-0.043335	0.010223	0.000305
43.897	0.01236	0.046387	0.038452	0.002289	-0.016937	-0.3125	-0.15091	-0.004578	-0.21515	0.83405	-0.13321	0.007019	-0.014343	-0.28976	-0.18601	0.27893	0.007477	1.7799	-0.50949	-0.005188	0.25803	0.33264	0.41321	0.15076	0.13672	-0.001373	-0.056458	-0.007324	-0.039978	-0.094147	0.009155	-0.004578
43.898	0.033112	0.010529	-0.006409	-0.002747	0.099487	-0.47241	-0.21118	-0.006409	-0.097351	0.37811	0.011749	0.006256	0.007172	-0.16937	-0.38711	0.12024	0.019531	1.6742	-0.43976	-0.042114	0.30792	0.26871	0.233	0.15091	0.10956	-0.001373	0.074921	-0.004883	-0.055389	-0.11368	0.016937	-0.006561
43.899	0.046692	0.038452	0.005798	0.00473	0.080261	-0.094452	-0.28244	-0.007629	-0.074615	-0.54962	-0.044403	0.007629	0.072479	-0.089569	0.37399	0.44525	0.054932	1.5605	-0.5191	-0.079193	0.25345	0.1944	0.000763	0.19653	0.090485	-0.005493	0.16327	-0.007019	-0.063171	-0.11429	0.008087	-0.003815
43.9	0.031433	0.033875	0.01236	0.017242	0.059967	0.20554	-0.28397	-0.001068	-0.067902	-0.6424	-0.015411	0.004883	0.092468	-0.19104	-0.51849	0.53085	0.076447	1.4528	-0.5397	-0.15411	0.21561	0.13489	0.014191	0.28702	0.072632	-0.006714	0.23712	0	-0.11276	-0.14389	0.00824	-0.008392
43.901	0.027313	0.00885	0.009003	0.009918	0.039825	0.1532	-0.31616	0.009918	-0.024109	-0.63767	0.043182	0.005493	0.016174	-0.24918	-0.32883	-0.018921	0.1503	1.241	-0.58197	-0.18799	0.13626	0.1294	0.048065	0.23621	0.062408	-0.010223	0.15274	-0.001984	-0.058441	-0.12146	0.005951	0.001984
43.902	0.021057	-0.043182	-0.027313	0.012054	0.028534	0.1207	-0.31601	0.002594	-0.009003	-0.61691	0.062256	0.003662	0.12711	-0.33463	-0.60821	-0.04715	0.19028	1.2175	-0.57404	-0.18356	0.097351	0.076294	0.14267	0.12482	0.014191	-0.006714	0.011139	0.003052	0.013428	-0.12054	0.006256	0.010681
43.903	-0.001373	-0.16251	-0.064697	0.016632	0.026398	0.22568	-0.35187	-0.005951	0.027771	-0.44403	0.06134	-0.002289	0.20004	-0.26184	-0.233	-0.10193	0.17395	1.0887	-0.62225	-0.055542	0.023193	0.005493	0.29953	0.037689	-0.030365	-0.008545	0.093842	0.004578	0.00885	-0.088043	0.010834	0.005951
43.904	-0.013123	-0.21744	-0.080566	0.011139	0.034943	-0.14313	-0.33371	0.003357	0.01358	0.026703	0.006561	0.00061	0.097961	-0.12558	-0.078888	0.54977	0.14801	0.94284	-0.63141	0.03418	-0.018768	-0.097351	0.38055	0.050049	-0.046082	-0.012054	0.25116	0.010223	-0.017548	-0.11459	0.010223	0.007629
43.905	-0.035858	-0.20477	-0.1236	-0.005188	-0.079651	-0.26413	-0.32425	0.013885	-0.040131	0.30579	0.00946	0.004425	0.063171	0.007324	-0.018005	-0.19196	0.14801	0.87601	-0.62683	0.11841	-0.081635	-0.13947	0.58426	0.055237	-0.046844	-0.010529	0.13855	0.010986	-0.01236	-0.11353	0.007629	0.002594
43.906	-0.058899	-0.22629	-0.024567	0.016632	-0.1831	-0.74448	-0.31815	0.014038	-0.051727	0.45075	0.01709	0.009918	0.045013	-0.054932	-0.010529	-0.21622	0.1561	0.75684	-0.63858	0.18448	-0.1297	-0.16342	0.80093	0.069275	-0.040894	-0.014954	0.11322	0.012207	-0.024109	-0.085144	0.006256	-0.001221
43.907	-0.053101	-0.27664	0.037384	0.013123	-0.29221	-0.46997	-0.34271	0.01236	-0.023041	0.026703	0.014954	0.002747	-0.02655	-0.027924	0.065308	-0.16113	0.22766	0.69946	-0.62775	0.14221	-0.16632	-0.12512	0.80048	0.078583	-0.025177	-0.015259	0.12054	0.00824	-0.066681	-0.12039	0.007172	0.005188
43.908	-0.033875	-0.35233	0.026398	0.026245	-0.3363	-0.17654	-0.36529	0.013123	-0.002136	-0.17578	0.047302	-0.000153	-0.028381	-0.23575	0.13046	-0.078735	0.27084	0.551	-0.54092	-0.031586	-0.17868	-0.11902	0.61233	0.067291	-0.024872	-0.013123	-0.089569	0.012665	-0.05661	-0.11704	0.00824	-0.003204
43.909	-0.014496	-0.37338	-0.001984	0.044708	-0.2327	-0.15518	-0.39642	0.016327	-0.004883	-0.25238	0.070801	0.003662	0	-0.35339	0.20523	-0.084686	0.30441	0.46173	-0.46707	-0.053253	-0.19714	-0.12329	0.58273	-0.062866	0.005188	-0.010376	-0.28	0.012512	-0.007019	-0.12344	0.014648	-0.002441
43.91	-0.004425	-0.4071	0.13443	0.025482	-0.28061	-0.082703	-0.4631	0.013733	0.007172	-0.18036	0.073547	0.009003	0.055389	-0.18539	0.25253	-0.078278	0.35782	0.34759	-0.3627	0.1413	-0.2095	-0.12665	0.45975	-0.11353	-0.006409	-0.009003	-0.11826	0.00946	0.011597	-0.1741	0.005493	-0.001678
43.911	0.011292	-0.41077	0.23254	0.021362	-0.20035	-0.09903	-0.5101	0.009766	-0.048218	-0.056305	0.080872	0.009918	0.048218	-0.018311	0.22385	-0.061493	0.17838	0.2948	-0.2977	0.3363	-0.2092	-0.12405	0.36804	-0.06897	-0.011597	-0.000458	0.27527	0.015259	-0.098114	-0.18341	0.008087	-0.013733
